<svg xmlns="http://www.w3.org/2000/svg" version="1.1" xmlns:xlink="http://www.w3.org/1999/xlink" xmlns:svgjs="http://svgjs.dev/svgjs" width="100%" height="100%" viewBox="0 0 1000 600"><rect width="1000" height="600" x="0" y="0" fill="#111111"/><g><circle r="166.66666666666666" cx="396.61872355143225" cy="418.84102373551866" fill="#ffffff" transform="matrix(0.5435911479053581,0,0,0.543591147905358,0,72.32167542699041)"/><path d="M344.73641782578085 493.8409964803219L344.73641782578085 343.8409992524071L388.3375474196842 343.8409992524071L388.3375474196842 493.8409964803219L344.73641782578085 493.8409964803219ZM397.48167320951677 377.2079748166303L397.48167320951677 343.8409992524071L448.5010505468273 343.8409992524071L448.5010505468273 377.2079748166303L397.48167320951677 377.2079748166303ZM397.48167320951677 439.12763455241674L397.48167320951677 405.7606589881935L440.44695299684236 405.7606589881935L440.44695299684236 439.12763455241674L397.48167320951677 439.12763455241674Z " fill="#111111" transform="matrix(0.5435911479053581,0,0,0.543591147905358,0,72.32167542699041)"/><path d="M646.6187342722062 461.2857526959132L646.6187342722062 352.53412133105564L678.2300280076512 352.53412133105564L678.2300280076512 461.2857526959132L646.6187342722062 461.2857526959132ZM684.8596187771683 376.7255419535976L684.8596187771683 352.53412133105564L721.8492229051022 352.53412133105564L721.8492229051022 376.7255419535976L684.8596187771683 376.7255419535976ZM684.8596187771683 421.6179695153928L684.8596187771683 397.42654889285086L716.0099144789714 397.42654889285086L716.0099144789714 421.6179695153928L684.8596187771683 421.6179695153928ZM736.4035893957968 366.6055375007919L736.4035893957968 343.84101555380823L765.6440361010833 343.84101555380823L765.6440361010833 366.6055375007919L736.4035893957968 366.6055375007919ZM736.4035893957968 461.2857526959132L736.4035893957968 380.67695367052823L765.6440361010833 380.67695367052823L765.6440361010833 461.2857526959132L736.4035893957968 461.2857526959132ZM829.3276216056155 461.2857526959132L829.3276216056155 423.1985342021651Q829.3276216056155 414.8127604473457 829.1739555944015 412.1345813947593L829.1739555944015 412.1345813947593Q828.8666235719735 407.7002193568705 828.3836732510152 406.2733206813122L828.3836732510152 406.2733206813122Q827.7470569188432 404.69275599454 826.1664922320709 404.2976148228469Q824.5859275452987 403.90247365115385 821.1174661493261 403.90247365115385L821.1174661493261 403.90247365115385L819.536901462554 403.90247365115385L819.536901462554 384.1454150665007Q825.7054941984289 379.57933930471415 835.6498803527044 379.57933930471415L835.6498803527044 379.57933930471415Q849.8749625336546 379.57933930471415 854.7703226051855 388.27244508196156L854.7703226051855 388.27244508196156Q856.9875036241298 392.04823850036195 857.777785967516 397.514358042116Q858.568068310902 402.9585252965538 858.568068310902 410.861348730415L858.568068310902 410.861348730415L858.568068310902 461.2857526959132L829.3276216056155 461.2857526959132ZM783.6449117004339 461.2857526959132L783.6449117004339 380.67695367052823L812.8853584057207 380.67695367052823L812.8853584057207 461.2857526959132L783.6449117004339 461.2857526959132ZM897.9285194689943 460.8028023749549Q891.6062607219054 460.8028023749549 887.1718986840166 458.67343050527563Q882.759488933444 456.5440586355964 879.9056915823274 451.8023645752796L879.9056915823274 451.8023645752796Q874.2200491674106 442.6263084770741 874.2200491674106 419.88373881740665L874.2200491674106 419.88373881740665Q874.2200491674106 396.965550859209 879.9056915823274 388.0968267834313L879.9056915823274 388.0968267834313Q882.759488933444 383.6844170328588 887.1718986840166 381.6209020251283Q891.6062607219054 379.57933930471415 897.9285194689943 379.57933930471415L897.9285194689943 379.57933930471415Q903.3068298614834 379.57933930471415 907.1045755672 380.5232876593143Q910.8803689856005 381.4672360139144 914.0414983591448 383.99174905528673L914.0414983591448 383.99174905528673L914.0414983591448 403.90247365115385L912.3072676611586 403.90247365115385Q908.8388062651862 403.90247365115385 907.3240984403627 404.2976148228469Q905.8313429028557 404.69275599454 905.0410605594697 405.96598865888427L905.0410605594697 405.96598865888427Q904.2507782160834 407.7002193568705 904.0971122048694 410.861348730415L904.0971122048694 410.861348730415Q903.9434461936556 413.0785297493594 903.9434461936556 420.19107083983454L903.9434461936556 420.19107083983454Q903.9434461936556 427.30361193030967 904.0971122048694 429.5207929492541L904.0971122048694 429.5207929492541Q904.2507782160834 432.8355883340126 905.0410605594697 434.32834387151973Q905.8313429028557 435.8430516963431 907.565573600842 436.1503837187711L907.565573600842 436.1503837187711Q909.7827546197863 436.4796680285153 912.3072676611586 436.4796680285153L912.3072676611586 436.4796680285153L914.0414983591448 436.4796680285153L914.0414983591448 456.5440586355964Q910.8803689856005 459.06857167696876 907.258241578414 459.94666316961997Q903.6141618839114 460.8028023749549 897.9285194689943 460.8028023749549L897.9285194689943 460.8028023749549ZM908.509521955442 493.8409947859583Q900.6066985215808 493.8409947859583 889.5427457141749 492.8970464313582L889.5427457141749 492.8970464313582L880.0593575935414 491.9530980767581L880.0593575935414 471.5594231599328L901.2433148537528 471.5594231599328Q906.9289572686697 471.5594231599328 912.3072676611586 471.25209113750486L912.3072676611586 471.25209113750486Q916.2586793780894 470.9228068277606 918.0807192253407 469.73738331268146Q919.902759072592 468.55195979760225 920.363757106234 465.72011473380195L920.363757106234 465.72011473380195Q920.6930414159782 461.9223690280853 920.6930414159782 457.6416730014105L920.6930414159782 457.6416730014105L920.6930414159782 380.67695367052823L949.9334881212648 380.67695367052823L949.9334881212648 452.43898090745176Q949.9334881212648 464.7542140918856 948.8139214681345 471.8008983204119Q947.7163071023205 478.8256302616219 944.0722274078176 483.56732432193866L944.0722274078176 483.56732432193866Q939.9671496796731 488.79196870321357 931.5155190629049 491.316481744586Q923.0638884461365 493.8409947859583 908.509521955442 493.8409947859583L908.509521955442 493.8409947859583ZM1001.301840441363 427.45727794152367L1001.301840441363 413.0785297493594L1012.3657932487687 413.0785297493594Q1012.3657932487687 404.23175796089805 1010.6315625507826 401.7072449195257L1010.6315625507826 401.7072449195257Q1009.6656619088661 400.2803462439674 1008.0850972220939 399.88520507227435Q1006.5045325353216 399.4900639005813 1003.5190214603075 399.4900639005813L1003.5190214603075 399.4900639005813L1001.301840441363 399.4900639005813L1001.301840441363 379.4037210061839L1003.5190214603075 379.4037210061839Q1017.1074873090855 379.4037210061839 1024.46150356004 381.6209020251283Q1031.7935675236777 383.83808304407273 1035.2839812069665 388.88710912681745L1035.2839812069665 388.88710912681745Q1038.445110580511 393.3214711647063 1039.147583774632 400.2803462439674Q1039.8720092560693 407.2392213232286 1039.8720092560693 421.1350191944347L1039.8720092560693 421.1350191944347L1039.8720092560693 427.45727794152367L1001.301840441363 427.45727794152367ZM1006.680150833852 462.55898536025745Q992.1257843431573 462.55898536025745 983.8278197376031 460.10032918083397Q975.5298551320487 457.6416730014105 971.4247774039042 452.2853148962378L971.4247774039042 452.2853148962378Q967.7806977094014 447.54362083592105 966.6830833435873 440.4969366073948Q965.5854689777733 433.4722046661848 965.5854689777733 421.1350191944347L965.5854689777733 421.1350191944347Q965.5854689777733 409.76373436460096 966.3757513211596 403.0463344458189Q967.1660336645456 396.3289345270368 969.6905467059179 391.58724046672006L969.6905467059179 391.58724046672006Q972.5223917697182 386.3625960854451 978.4495093451143 383.44294187237966Q984.3766269205101 380.5232876593143 994.6502973845298 379.73300531592815L994.6502973845298 379.73300531592815L994.6502973845298 427.45727794152367Q994.6502973845298 432.8355883340126 995.1332477054881 435.1186262149058Q995.6161980264461 437.42361638311536 997.3504287244324 438.52123074892944L997.3504287244324 438.52123074892944Q999.2383254336327 439.7944634132738 1003.1897371505632 439.9481294244877L1003.1897371505632 439.9481294244877Q1008.2607155206241 440.25546144691566 1013.946357935541 440.25546144691566L1013.946357935541 440.25546144691566Q1024.0663623883465 440.25546144691566 1028.632438150133 439.7944634132738L1028.632438150133 439.7944634132738L1036.7108798825248 439.1578470811016L1036.7108798825248 459.5515219979269Q1030.3886211354356 461.4394187071271 1019.32466832803 462.07603503929926L1019.32466832803 462.07603503929926Q1013.946357935541 462.55898536025745 1006.680150833852 462.55898536025745L1006.680150833852 462.55898536025745ZM1091.8550256210233 410.0710663870289L1091.8550256210233 385.264981719631Q1095.1917732930983 382.1038523460865 1099.6919921929357 380.76476281979336Q1104.1922110927735 379.4037210061839 1110.8218018622902 379.4037210061839L1110.8218018622902 379.4037210061839L1110.8218018622902 405.8123226476703Q1103.7092607718155 405.8123226476703 1099.2090418719777 406.7562710022704Q1094.7088229721398 407.7002193568705 1091.8550256210233 410.0710663870289L1091.8550256210233 410.0710663870289ZM1055.9849881462196 461.2857526959132L1055.9849881462196 380.67695367052823L1085.2254348515062 380.67695367052823L1085.2254348515062 461.2857526959132L1055.9849881462196 461.2857526959132ZM1115.5634959226072 377.8231563194117L1115.5634959226072 352.53412133105564L1204.5580687028114 352.53412133105564L1204.5580687028114 377.8231563194117L1115.5634959226072 377.8231563194117ZM1144.1892785830378 461.2857526959132L1144.1892785830378 384.1454150665007L1175.8005723184829 384.1454150665007L1175.8005723184829 461.2857526959132L1144.1892785830378 461.2857526959132ZM1234.7424637626982 460.8028023749549Q1220.517381581748 460.8028023749549 1215.622021510217 452.10969659770757L1215.622021510217 452.10969659770757Q1213.4048404912728 448.3339031793072 1212.6145581478868 442.86778363755315Q1211.8242758045008 437.42361638311536 1211.8242758045008 429.5207929492541L1211.8242758045008 429.5207929492541L1211.8242758045008 380.67695367052823L1241.0647225097873 380.67695367052823L1241.0647225097873 417.183607477504Q1241.0647225097873 425.5693812323235 1241.218388521001 428.2475602849098L1241.218388521001 428.2475602849098Q1241.5476728307453 432.3526380130544 1242.1842891629176 433.93320269982667L1242.1842891629176 433.93320269982667Q1242.7989532077736 435.6893856851292 1244.2258518833319 436.0845268568222Q1245.6527505588901 436.4796680285153 1249.2968302533927 436.4796680285153L1249.2968302533927 436.4796680285153L1250.8773949401648 436.4796680285153L1250.8773949401648 456.0611083146382Q1244.5551361930761 460.8028023749549 1234.7424637626982 460.8028023749549L1234.7424637626982 460.8028023749549ZM1245.6527505588901 493.8409947859583Q1237.442595102601 493.8409947859583 1226.3786422951948 492.8970464313582L1226.3786422951948 492.8970464313582L1217.2025861969896 491.9530980767581L1217.2025861969896 471.5594231599328L1238.3865434572008 471.5594231599328Q1244.0721858721176 471.5594231599328 1249.4504962646065 471.25209113750486L1249.4504962646065 471.25209113750486Q1253.2482419703233 470.9228068277606 1255.0483295302583 469.73738331268146Q1256.8703693775096 468.55195979760225 1257.1996536872539 465.72011473380195L1257.1996536872539 465.72011473380195Q1257.5069857096819 461.9223690280853 1257.5069857096819 457.6416730014105L1257.5069857096819 457.6416730014105L1257.5069857096819 380.67695367052823L1286.7474324149684 380.67695367052823L1286.7474324149684 452.43898090745176Q1286.7474324149684 465.0834984016298 1285.7156749111032 472.042373480891Q1284.6839174072384 478.9792962728359 1281.0617900000516 483.56732432193866L1281.0617900000516 483.56732432193866Q1276.9567122719072 488.79196870321357 1268.5709385170876 491.316481744586Q1260.1851647622684 493.8409947859583 1245.6527505588901 493.8409947859583L1245.6527505588901 493.8409947859583ZM1356.7752289539062 462.3833670617272Q1351.0676342516726 462.3833670617272 1347.4455068444863 461.52722785639224Q1343.8014271499837 460.649136363741 1340.6402977764392 458.1246233223686L1340.6402977764392 458.1246233223686L1340.6402977764392 438.06023271528755L1342.3745284744255 438.06023271528755Q1345.8649421577143 438.06023271528755 1347.3576976952213 437.6650915435945Q1348.8724055200446 437.2699503719014 1349.6626878634306 435.8430516963431L1349.6626878634306 435.8430516963431Q1350.452970206817 434.1088209983569 1350.6066362180309 430.7720733262821L1350.6066362180309 430.7720733262821Q1350.7603022292446 428.40122629612375 1350.7603022292446 420.9813531832207L1350.7603022292446 420.9813531832207Q1350.7603022292446 413.5614800703176 1350.6066362180309 411.19063304015924L1350.6066362180309 411.19063304015924Q1350.452970206817 407.7002193568705 1349.7285447253798 406.11965467009827Q1349.0260715312584 404.539089983326 1347.2918408332725 404.23175796089805L1347.2918408332725 404.23175796089805Q1345.0746598143282 403.90247365115385 1342.3745284744255 403.90247365115385L1342.3745284744255 403.90247365115385L1340.6402977764392 403.90247365115385L1340.6402977764392 383.83808304407273Q1343.8014271499837 381.4672360139144 1347.6869820049656 380.5232876593143Q1351.5505845726311 379.57933930471415 1356.7752289539062 379.57933930471415L1356.7752289539062 379.57933930471415Q1363.0974877009949 379.57933930471415 1367.5977066008327 381.6209020251283Q1372.0979255006705 383.6844170328588 1374.9517228517866 388.27244508196156L1374.9517228517866 388.27244508196156Q1380.4836992554897 397.42654889285086 1380.4836992554897 420.67402116079273L1380.4836992554897 420.67402116079273Q1380.4836992554897 443.74587513020435 1374.9517228517866 453.2292632508379L1374.9517228517866 453.2292632508379Q1369.419746448084 462.3833670617272 1356.7752289539062 462.3833670617272L1356.7752289539062 462.3833670617272ZM1304.7702603016355 492.74338042014426L1304.7702603016355 380.67695367052823L1334.010707006922 380.67695367052823L1334.010707006922 492.74338042014426L1304.7702603016355 492.74338042014426ZM1396.113727824682 366.6055375007919L1396.113727824682 343.84101555380823L1425.3541745299685 343.84101555380823L1425.3541745299685 366.6055375007919L1396.113727824682 366.6055375007919ZM1396.113727824682 461.2857526959132L1396.113727824682 380.67695367052823L1425.3541745299685 380.67695367052823L1425.3541745299685 461.2857526959132L1396.113727824682 461.2857526959132ZM1489.0597123218167 461.2857526959132L1489.0597123218167 423.1985342021651Q1489.0597123218167 414.8127604473457 1488.906046310603 412.1345813947593L1488.906046310603 412.1345813947593Q1488.5767620008587 407.7002193568705 1488.115763967217 406.2733206813122L1488.115763967217 406.2733206813122Q1487.4791476350447 404.69275599454 1485.8985829482726 404.2976148228469Q1484.3180182615001 403.90247365115385 1480.8495568655276 403.90247365115385L1480.8495568655276 403.90247365115385L1479.2689921787555 403.90247365115385L1479.2689921787555 384.1454150665007Q1485.4156326273142 379.57933930471415 1495.3819710689058 379.57933930471415L1495.3819710689058 379.57933930471415Q1509.607053249856 379.57933930471415 1514.502413321387 388.27244508196156L1514.502413321387 388.27244508196156Q1516.7195943403312 392.04823850036195 1517.5098766837173 397.514358042116Q1518.3001590271037 402.9585252965538 1518.3001590271037 410.861348730415L1518.3001590271037 410.861348730415L1518.3001590271037 461.2857526959132L1489.0597123218167 461.2857526959132ZM1443.3770024166356 461.2857526959132L1443.3770024166356 380.67695367052823L1472.6174491219222 380.67695367052823L1472.6174491219222 461.2857526959132L1443.3770024166356 461.2857526959132ZM1557.6606101851962 460.8028023749549Q1551.338351438107 460.8028023749549 1546.903989400218 458.67343050527563Q1542.4915796496457 456.5440586355964 1539.6377822985291 451.8023645752796L1539.6377822985291 451.8023645752796Q1533.9521398836123 442.6263084770741 1533.9521398836123 419.88373881740665L1533.9521398836123 419.88373881740665Q1533.9521398836123 396.965550859209 1539.6377822985291 388.0968267834313L1539.6377822985291 388.0968267834313Q1542.4915796496457 383.6844170328588 1546.903989400218 381.6209020251283Q1551.338351438107 379.57933930471415 1557.6606101851962 379.57933930471415L1557.6606101851962 379.57933930471415Q1563.038920577685 379.57933930471415 1566.8147139960856 380.5232876593143Q1570.612459701802 381.4672360139144 1573.7735890753465 383.99174905528673L1573.7735890753465 383.99174905528673L1573.7735890753465 403.90247365115385L1572.0393583773603 403.90247365115385Q1568.5708969813877 403.90247365115385 1567.0561891565644 404.2976148228469Q1565.5634336190574 404.69275599454 1564.7731512756714 405.96598865888427L1564.7731512756714 405.96598865888427Q1563.9828689322849 407.7002193568705 1563.829202921071 410.861348730415L1563.829202921071 410.861348730415Q1563.653584622541 413.0785297493594 1563.653584622541 420.19107083983454L1563.653584622541 420.19107083983454Q1563.653584622541 427.30361193030967 1563.829202921071 429.5207929492541L1563.829202921071 429.5207929492541Q1563.9828689322849 432.8355883340126 1564.7731512756714 434.32834387151973Q1565.5634336190574 435.8430516963431 1567.2976643170437 436.1503837187711L1567.2976643170437 436.1503837187711Q1569.514845335988 436.4796680285153 1572.0393583773603 436.4796680285153L1572.0393583773603 436.4796680285153L1573.7735890753465 436.4796680285153L1573.7735890753465 456.5440586355964Q1570.612459701802 459.06857167696876 1566.9903322946157 459.94666316961997Q1563.346252600113 460.8028023749549 1557.6606101851962 460.8028023749549L1557.6606101851962 460.8028023749549ZM1568.2416126716435 493.8409947859583Q1560.3387892377823 493.8409947859583 1549.2748364303766 492.8970464313582L1549.2748364303766 492.8970464313582L1539.791448309743 491.9530980767581L1539.791448309743 471.5594231599328L1560.9754055699545 471.5594231599328Q1566.6610479848714 471.5594231599328 1572.0393583773603 471.25209113750486L1572.0393583773603 471.25209113750486Q1575.9907700942908 470.9228068277606 1577.8128099415421 469.73738331268146Q1579.6348497887934 468.55195979760225 1580.0958478224356 465.72011473380195L1580.0958478224356 465.72011473380195Q1580.42513213218 461.9223690280853 1580.42513213218 457.6416730014105L1580.42513213218 457.6416730014105L1580.42513213218 380.67695367052823L1609.6655788374665 380.67695367052823L1609.6655788374665 452.43898090745176Q1609.6655788374665 464.7542140918856 1608.5460121843362 471.8008983204119Q1607.4483978185222 478.8256302616219 1603.8043181240191 483.56732432193866L1603.8043181240191 483.56732432193866Q1599.6992403958748 488.79196870321357 1591.2476097791064 491.316481744586Q1582.795979162338 493.8409947859583 1568.2416126716435 493.8409947859583L1568.2416126716435 493.8409947859583Z " fill="#ffff" transform="matrix(0.5435911479053581,0,0,0.543591147905358,0,72.32167542699041)"/></g></svg>