<?xml version="1.0" encoding="UTF-8"?>
<svg version="1.1" xmlns="http://www.w3.org/2000/svg" width="192" height="192">
<path d="M0 0 C63.36 0 126.72 0 192 0 C192 63.36 192 126.72 192 192 C128.64 192 65.28 192 0 192 C0 128.64 0 65.28 0 0 Z " fill="#00FD00" transform="translate(0,0)"/>
<path d="M0 0 C14.52 0 29.04 0 44 0 C44 35.97 44 71.94 44 109 C29.48 109 14.96 109 0 109 C0 73.03 0 37.06 0 0 Z " fill="#000000" transform="translate(74,64)"/>
<path d="M0 0 C41.91 0 83.82 0 127 0 C127 11.88 127 23.76 127 36 C85.09 36 43.18 36 0 36 C0 24.12 0 12.24 0 0 Z " fill="#000200" transform="translate(33,19)"/>
<path d="M0 0 C0.33 0 0.66 0 1 0 C1 3.63 1 7.26 1 11 C-2.63 11 -6.26 11 -10 11 C-9.01 10.01 -8.02 9.02 -7 8 C-6.34 8 -5.68 8 -5 8 C-4.67 7.01 -4.34 6.02 -4 5 C-3.34 5 -2.68 5 -2 5 C-1.34 3.35 -0.68 1.7 0 0 Z " fill="#000000" transform="translate(191,181)"/>
<path d="M0 0 C0.99 0.99 1.98 1.98 3 3 C3 3.66 3 4.32 3 5 C3.99 5.33 4.98 5.66 6 6 C6 6.66 6 7.32 6 8 C8.475 8.99 8.475 8.99 11 10 C11 10.33 11 10.66 11 11 C7.37 11 3.74 11 0 11 C0 7.37 0 3.74 0 0 Z " fill="#000000" transform="translate(0,181)"/>
<path d="M0 0 C3.63 0 7.26 0 11 0 C11 3.63 11 7.26 11 11 C10.01 10.01 9.02 9.02 8 8 C8 7.34 8 6.68 8 6 C7.01 5.67 6.02 5.34 5 5 C5 4.34 5 3.68 5 3 C2.525 2.01 2.525 2.01 0 1 C0 0.67 0 0.34 0 0 Z " fill="#000000" transform="translate(181,0)"/>
<path d="M0 0 C3.63 0 7.26 0 11 0 C9.515 1.485 9.515 1.485 8 3 C7.34 3 6.68 3 6 3 C5.67 3.99 5.34 4.98 5 6 C4.34 6 3.68 6 3 6 C2.34 7.65 1.68 9.3 1 11 C0.67 11 0.34 11 0 11 C0 7.37 0 3.74 0 0 Z " fill="#000000" transform="translate(0,0)"/>
</svg>
